<svg width="107" height="52" viewBox="0 0 107 52" fill="none" xmlns="http://www.w3.org/2000/svg">
<path d="M0 12.7472C0 11.1824 0.270105 9.6537 0.810316 8.16111C1.37304 6.64445 2.18335 5.27222 3.24126 4.04444C4.29918 2.81667 5.58218 1.84167 7.09027 1.11944C8.62086 0.373148 10.3428 0 12.256 0C14.5519 0 16.5552 0.517593 18.2659 1.55278C19.9765 2.56389 21.2483 3.91204 22.0811 5.59722L17.0504 9.425C16.7578 8.58241 16.3301 7.93241 15.7674 7.475C15.2272 7.01759 14.6307 6.70463 13.978 6.53611C13.3477 6.34352 12.7287 6.24722 12.121 6.24722C10.8605 6.24722 9.82508 6.58426 9.01477 7.25833C8.22696 7.93241 7.64173 8.78704 7.25908 9.82222C6.87643 10.8333 6.68511 11.8806 6.68511 12.9639C6.68511 14.1435 7.25908 16.2489 7.25908 16.2489L5.57895 20.5L9.29825 19C9.29825 19 11.0406 19.7528 12.1885 19.7528C12.7962 19.7528 13.4152 19.6565 14.0455 19.4639C14.6757 19.2472 15.2497 18.9102 15.7674 18.4528C16.2851 17.9954 16.679 17.3815 16.9491 16.6111L22.3175 20.0417C21.8448 21.2935 21.057 22.3648 19.954 23.2556C18.8511 24.1463 17.6019 24.8324 16.2063 25.3139C14.8108 25.7713 13.4265 26 12.0535 26C10.2753 26 8.64337 25.6269 7.15779 24.8806C5.69472 24.1102 4.42298 23.0991 3.34255 21.8472C2.28464 20.5713 1.46307 19.1509 0.877842 17.5861C0.292614 15.9972 0 14.3843 0 12.7472Z" fill="#F59300"/>
<path d="M35.1024 26C33.2791 26 31.6247 25.6389 30.1392 24.9167C28.6536 24.1704 27.3706 23.1833 26.2902 21.9556C25.2323 20.7037 24.4107 19.3074 23.8255 17.7667C23.2627 16.2019 22.9814 14.5889 22.9814 12.9278C22.9814 11.2185 23.2852 9.59352 23.893 8.05278C24.5007 6.51204 25.3448 5.13982 26.4252 3.93611C27.5282 2.70833 28.8224 1.74537 30.308 1.04722C31.8161 0.349074 33.4592 0 35.2374 0C37.0606 0 38.715 0.373148 40.2006 1.11944C41.6862 1.84167 42.9579 2.8287 44.0158 4.08056C45.0737 5.33241 45.8841 6.74074 46.4468 8.30556C47.032 9.8463 47.3246 11.4352 47.3246 13.0722C47.3246 14.7574 47.0208 16.3704 46.413 17.9111C45.8278 19.4519 44.9837 20.8361 43.8808 22.0639C42.8004 23.2676 41.5174 24.2306 40.0318 24.9528C38.5462 25.6509 36.9031 26 35.1024 26ZM29.6665 13C29.6665 14.1315 29.8578 15.2148 30.2405 16.25C30.6456 17.2852 31.2534 18.1278 32.0637 18.7778C32.8965 19.4278 33.9319 19.7528 35.1699 19.7528C36.4529 19.7528 37.4883 19.4157 38.2761 18.7417C39.0864 18.0676 39.6829 17.213 40.0655 16.1778C40.4482 15.1185 40.6395 14.0352 40.6395 12.9278C40.6395 11.7722 40.4369 10.6889 40.0318 9.67778C39.6266 8.66667 39.0189 7.84815 38.2086 7.22222C37.3983 6.57222 36.3741 6.24722 35.1361 6.24722C33.8756 6.24722 32.8402 6.58426 32.0299 7.25833C31.2196 7.90833 30.6231 8.75093 30.2405 9.78611C29.8578 10.7972 29.6665 11.8685 29.6665 13Z" fill="#F59300"/>
<path d="M50.1151 25.7833V0.144445H59.3324C61.9885 0.144445 64.2056 0.722222 65.9838 1.87778C67.7845 3.00926 69.135 4.55 70.0354 6.5C70.9582 8.42593 71.4197 10.5685 71.4197 12.9278C71.4197 15.5278 70.9132 17.7907 69.9003 19.7167C68.9099 21.6426 67.5031 23.1352 65.6799 24.1944C63.8792 25.2537 61.7634 25.7833 59.3324 25.7833H50.1151ZM64.7346 12.9278C64.7346 10.9296 64.2506 9.3287 63.2827 8.125C62.3374 6.89722 61.0206 6.28333 59.3324 6.28333H56.6989V19.6444H59.3324C61.0656 19.6444 62.3936 19.0065 63.3165 17.7306C64.2619 16.4546 64.7346 14.8537 64.7346 12.9278Z" fill="#F59300"/>
<path d="M74.2835 25.7833V0.144445H80.8673V25.7833H74.2835Z" fill="#F59300"/>
<path d="M83.6825 12.7472C83.6825 11.1824 83.9527 9.6537 84.4929 8.16111C85.0556 6.64445 85.8659 5.27222 86.9238 4.04444C87.9817 2.81667 89.2647 1.84167 90.7728 1.11944C92.3034 0.373148 94.0253 0 95.9386 0C98.2345 0 100.238 0.517593 101.948 1.55278C103.659 2.56389 104.931 3.91204 105.764 5.59722L100.733 9.425C100.44 8.58241 100.013 7.93241 99.4499 7.475C98.9097 7.01759 98.3133 6.70463 97.6605 6.53611C97.0303 6.34352 96.4113 6.24722 95.8035 6.24722C94.543 6.24722 93.5076 6.58426 92.6973 7.25833C91.9095 7.93241 91.3243 8.78704 90.9416 9.82222C90.559 10.8333 90.3677 11.8806 90.3677 12.9639C90.3677 14.1435 90.5815 15.2509 91.0092 16.2861C91.4593 17.3213 92.0896 18.1639 92.8999 18.8139C93.7327 19.4398 94.7231 19.7528 95.871 19.7528C96.4788 19.7528 97.0978 19.6565 97.728 19.4639C98.3583 19.2472 98.9322 18.9102 99.4499 18.4528C99.9676 17.9954 100.362 17.3815 100.632 16.6111L106 20.0417C105.527 21.2935 104.74 22.3648 103.637 23.2556C102.534 24.1463 101.284 24.8324 99.8889 25.3139C98.4933 25.7713 97.109 26 95.736 26C93.9578 26 92.3259 25.6269 90.8403 24.8806C89.3773 24.1102 88.1055 23.0991 87.0251 21.8472C85.9672 20.5713 85.1456 19.1509 84.5604 17.5861C83.9752 15.9972 83.6825 14.3843 83.6825 12.7472Z" fill="#F59300"/>
<path d="M7.969 47.869V49H1.365V39.9H7.787V41.031H2.665V43.826H7.228V44.931H2.665V47.869H7.969ZM13.194 39.9H17.029C17.991 39.9 18.8447 40.0907 19.59 40.472C20.3353 40.8533 20.9117 41.3907 21.319 42.084C21.735 42.7687 21.943 43.5573 21.943 44.45C21.943 45.3427 21.735 46.1357 21.319 46.829C20.9117 47.5137 20.3353 48.0467 19.59 48.428C18.8447 48.8093 17.991 49 17.029 49H13.194V39.9ZM16.951 47.869C17.6877 47.869 18.3333 47.726 18.888 47.44C19.4513 47.154 19.8847 46.7553 20.188 46.244C20.4913 45.724 20.643 45.126 20.643 44.45C20.643 43.774 20.4913 43.1803 20.188 42.669C19.8847 42.149 19.4513 41.746 18.888 41.46C18.3333 41.174 17.6877 41.031 16.951 41.031H14.494V47.869H16.951ZM30.8242 49.104C29.6109 49.104 28.6662 48.7573 27.9902 48.064C27.3142 47.3707 26.9762 46.374 26.9762 45.074V39.9H28.2762V45.022C28.2762 46.972 29.1299 47.947 30.8372 47.947C31.6692 47.947 32.3062 47.7087 32.7482 47.232C33.1902 46.7467 33.4112 46.01 33.4112 45.022V39.9H34.6722V45.074C34.6722 46.3827 34.3342 47.3837 33.6582 48.077C32.9822 48.7617 32.0376 49.104 30.8242 49.104ZM44.5264 49.104C43.6164 49.104 42.7931 48.9047 42.0564 48.506C41.3284 48.0987 40.7564 47.544 40.3404 46.842C39.9244 46.1313 39.7164 45.334 39.7164 44.45C39.7164 43.566 39.9244 42.773 40.3404 42.071C40.7564 41.3603 41.3328 40.8057 42.0694 40.407C42.8061 39.9997 43.6294 39.796 44.5394 39.796C45.2501 39.796 45.9001 39.9173 46.4894 40.16C47.0788 40.394 47.5814 40.745 47.9974 41.213L47.1524 42.032C46.4678 41.3127 45.6141 40.953 44.5914 40.953C43.9154 40.953 43.3044 41.1047 42.7584 41.408C42.2124 41.7113 41.7834 42.1317 41.4714 42.669C41.1681 43.1977 41.0164 43.7913 41.0164 44.45C41.0164 45.1087 41.1681 45.7067 41.4714 46.244C41.7834 46.7727 42.2124 47.1887 42.7584 47.492C43.3044 47.7953 43.9154 47.947 44.5914 47.947C45.6054 47.947 46.4591 47.583 47.1524 46.855L47.9974 47.674C47.5814 48.142 47.0744 48.4973 46.4764 48.74C45.8871 48.9827 45.2371 49.104 44.5264 49.104ZM58.5541 46.725H53.7181L52.7171 49H51.3781L55.4991 39.9H56.7861L60.9201 49H59.5551L58.5541 46.725ZM58.0991 45.685L56.1361 41.226L54.1731 45.685H58.0991ZM66.7476 41.031H63.6276V39.9H71.1546V41.031H68.0346V49H66.7476V41.031ZM75.6905 39.9H76.9905V49H75.6905V39.9ZM86.9429 49.104C86.0242 49.104 85.1965 48.9047 84.4599 48.506C83.7232 48.0987 83.1425 47.5397 82.7179 46.829C82.3019 46.1183 82.0939 45.3253 82.0939 44.45C82.0939 43.5747 82.3019 42.7817 82.7179 42.071C83.1425 41.3603 83.7232 40.8057 84.4599 40.407C85.1965 39.9997 86.0242 39.796 86.9429 39.796C87.8529 39.796 88.6762 39.9997 89.4129 40.407C90.1495 40.8057 90.7259 41.3603 91.1419 42.071C91.5579 42.773 91.7659 43.566 91.7659 44.45C91.7659 45.334 91.5579 46.1313 91.1419 46.842C90.7259 47.544 90.1495 48.0987 89.4129 48.506C88.6762 48.9047 87.8529 49.104 86.9429 49.104ZM86.9429 47.947C87.6102 47.947 88.2082 47.7953 88.7369 47.492C89.2742 47.1887 89.6945 46.7727 89.9979 46.244C90.3099 45.7067 90.4659 45.1087 90.4659 44.45C90.4659 43.7913 90.3099 43.1977 89.9979 42.669C89.6945 42.1317 89.2742 41.7113 88.7369 41.408C88.2082 41.1047 87.6102 40.953 86.9429 40.953C86.2755 40.953 85.6689 41.1047 85.1229 41.408C84.5855 41.7113 84.1609 42.1317 83.8489 42.669C83.5455 43.1977 83.3939 43.7913 83.3939 44.45C83.3939 45.1087 83.5455 45.7067 83.8489 46.244C84.1609 46.7727 84.5855 47.1887 85.1229 47.492C85.6689 47.7953 86.2755 47.947 86.9429 47.947ZM104.699 39.9V49H103.633L98.1729 42.214V49H96.8729V39.9H97.9389L103.399 46.686V39.9H104.699Z" fill="#F59300"/>
<path d="M10 12H14" stroke="#F59300" stroke-width="1.4"/>
<path d="M10 15H14" stroke="#F59300" stroke-width="1.4"/>
</svg>
